<?xml version="1.0"?>
<svg xmlns="http://www.w3.org/2000/svg" xmlns:xlink="http://www.w3.org/1999/xlink" version="1.1" id="Capa_1" x="0px" y="0px" viewBox="0 0 496 496" style="enable-background:new 0 0 496 496;" xml:space="preserve" width="512px" height="512px" class=""><g><g>
	<circle style="fill:#FFFF00" cx="405.44" cy="400" r="64" data-original="#FFA64D" class="active-path" data-old_color="#FFff00"/>
	<path style="fill:#FFFF00" d="M205.44,0c-79.4,0-144,64.6-144,144v72h8c0-17.672,14.328-32,32-32v-16c48,0,112-8,144-40   c10.664,21.336,32,32,64,32v24c17.672,0,32,14.328,32,32h8v-72C349.44,64.6,284.84,0,205.44,0z" data-original="#FFA64D" class="active-path" data-old_color="#FFff00"/>
</g><g>
	<path style="fill:#00CC66" d="M469.44,304h-24v-16h16c13.232,0,24-10.768,24-24v-64c0-13.232-10.768-24-24-24h-96   c-10.96,0-20.12,7.424-22.984,17.48c-5.768-8.432-14.664-14.56-25.016-16.672V152h-8c-28.976,0-47.568-9.016-56.84-27.576   l-4.96-9.928l-7.848,7.848C205.8,156.336,131.712,160,101.44,160h-8v16.808c-18.232,3.72-32,19.872-32,39.192   c0,20.176,15.072,36.736,34.512,39.448c6.704,31.328,26.568,57.776,53.488,73.4v8.288l-41.312,6.352   c-36.952,5.688-68.04,32.424-79.192,68.112L2.56,496h258.88h8h200c13.232,0,24-10.768,24-24V328   C493.44,314.768,482.672,304,469.44,304z M77.44,216c0-10.416,6.712-19.216,16-22.528V232c0,2.24,0.208,4.424,0.336,6.632   C84.312,235.416,77.44,226.536,77.44,216z M429.44,304h-32v-16h32V304z M357.44,200c0-4.408,3.584-8,8-8h96c4.416,0,8,3.592,8,8v64   c0,4.408-3.584,8-8,8h-96c-4.416,0-8-3.592-8-8V200z M341.44,239.752V264c0,13.232,10.768,24,24,24h16v16h-56v-32h-15.408   c2.048-5.368,3.568-10.912,4.776-16.544C325.696,253.976,335.16,248.184,341.44,239.752z M293.44,288h16v16h-16V288z M333.44,216   c0,10.56-6.904,19.456-16.4,22.648c0.136-2.216,0.4-4.424,0.4-6.648v-38.528C326.728,196.784,333.44,205.584,333.44,216z    M157.44,188c0,2.208-1.8,4-4,4s-4-1.792-4-4s1.8-4,4-4S157.44,185.792,157.44,188z M109.44,232v-56.072   c8.856-0.16,18.88-0.632,29.472-1.584c-3.368,3.584-5.472,8.368-5.472,13.664c0,11.024,8.968,20,20,20s20-8.976,20-20   c0-7.096-3.744-13.304-9.336-16.856c28.6-4.736,58.224-13.784,79.464-30.776c12.008,16.704,31.408,25.896,57.864,27.408V232   c0,13.832-3.168,27.512-8.896,40H277.44v32h-16c-11.192,0-20.544,7.736-23.184,18.12C227.76,325.952,216.76,328,205.44,328   C152.504,328,109.44,284.936,109.44,232z M237.44,355.616c-7.648,8.152-18.36,12.384-32,12.384c-30.208,0-38.6-20.904-40-25.168   v-6.344c12.44,4.784,25.896,7.512,40,7.512c10.952,0,21.664-1.592,32-4.672V355.616z M205.44,384c13.792,0,24.184-3.496,32-8.08   v38.184L232.496,424h-54.112l-34.88-69.76l8.704-1.336C158.496,366.336,174.624,384,205.44,384z M237.44,440v24.248   c-7.296-9.8-18.872-16.248-32-16.248c-19.312,0-35.472,13.768-39.192,32H149.44v-40H237.44z M205.44,464   c10.416,0,19.216,6.712,22.528,16H182.92C186.224,470.712,195.024,464,205.44,464z M44.2,416.376   c9.352-29.904,35.4-52.312,66.368-57.072l16.328-2.512l33.6,67.208H149.44c-8.824,0-16,7.176-16,16v40h-30.936l6.872-55.008   l-15.872-1.984L86.376,480H24.32L44.2,416.376z M477.44,472c0,4.408-3.584,8-8,8h-200h-8c-4.416,0-8-3.592-8-8V328   c0-4.408,3.584-8,8-8h16h48h144c4.416,0,8,3.592,8,8V472z" data-original="#333333" class="" data-old_color="#00cc66"/>
	<path style="fill:#00CC66" d="M373.44,400c0,17.648,14.352,32,32,32s32-14.352,32-32s-14.352-32-32-32S373.44,382.352,373.44,400z    M421.44,400c0,8.824-7.176,16-16,16s-16-7.176-16-16s7.176-16,16-16S421.44,391.176,421.44,400z" data-original="#333333" class="" data-old_color="#00cc66"/>
	<path style="fill:#00CC66" d="M405.44,336c-35.288,0-64,28.712-64,64s28.712,64,64,64c11.64,0,23.048-3.16,32.984-9.144   l-8.248-13.712c-7.448,4.488-16,6.848-24.736,6.848c-26.472,0-48-21.528-48-48s21.528-48,48-48s48,21.528,48,48   c0,12.64-4.864,24.568-13.712,33.592l11.424,11.192c11.8-12.032,18.288-27.936,18.288-44.792   C469.44,364.712,440.728,336,405.44,336z" data-original="#333333" class="" data-old_color="#00cc66"/>
	<path style="fill:#00CC66" d="M269.44,384h64v-48h-64V384z M285.44,352h32v16h-32V352z" data-original="#333333" class="" data-old_color="#00cc66"/>
	<path style="fill:#00CC66" d="M453.44,208h-80v48h80V208z M389.44,224h16v16h-16V224z M437.44,240h-16v-16h16V240z" data-original="#333333" class="" data-old_color="#00cc66"/>
	<path style="fill:#00CC66" d="M257.44,208c11.032,0,20-8.976,20-20s-8.968-20-20-20s-20,8.976-20,20S246.408,208,257.44,208z    M257.44,184c2.2,0,4,1.792,4,4s-1.8,4-4,4s-4-1.792-4-4S255.24,184,257.44,184z" data-original="#333333" class="" data-old_color="#00cc66"/>
	<path style="fill:#00CC66" d="M269.44,232h-16c0,26.472-21.528,48-48,48s-48-21.528-48-48h-16c0,35.288,28.712,64,64,64   S269.44,267.288,269.44,232z" data-original="#333333" class="" data-old_color="#00cc66"/>
</g></g> </svg>
