<svg xmlns="http://www.w3.org/2000/svg" xmlns:xlink="http://www.w3.org/1999/xlink" xml:space="preserve" version="1.1" style="shape-rendering:geometricPrecision;text-rendering:geometricPrecision;image-rendering:optimizeQuality;" viewBox="0 0 800 865" x="0px" y="0px" fill-rule="evenodd" clip-rule="evenodd"><defs><style type="text/css">
   
    .fil1 {fill:black}
    .fil0 {fill:black;fill-rule:nonzero}
   
  </style></defs><g><path class="fil0" d="M575 235c301,0 301,457 0,457 -301,0 -301,-457 0,-457zm0 12c-285,0 -285,433 0,433 285,0 285,-433 0,-433z"/><path class="fil0" d="M412 527l326 0c-34,122 -292,125 -326,0zm310 12l-294 0c38,91 255,91 294,0z"/><path class="fil1" d="M617 370c-31,0 -31,90 0,90 30,0 30,-90 0,-90zm-15 60c0,18 22,18 22,0 0,-19 -22,-19 -22,0z"/><path class="fil1" d="M533 371c31,0 31,90 0,90 -31,0 -31,-90 0,-90zm15 59c0,19 -23,19 -23,0 0,-18 23,-18 23,0z"/><path class="fil0" d="M130 169c222,-54 304,283 83,337 -221,54 -304,-282 -83,-337zm3 9c-210,52 -132,371 78,319 210,-51 131,-370 -78,-319z"/><path class="fil0" d="M63 414l240 -59c-3,96 -192,144 -240,59zm231 -48l-217 53c45,61 205,21 217,-53z"/><path class="fil1" d="M186 261c-23,6 -7,72 16,67 22,-6 6,-72 -16,-67zm-1 47c4,14 20,9 17,-4 -3,-14 -20,-10 -17,4z"/><path class="fil1" d="M124 277c23,-6 39,61 16,66 -22,6 -38,-61 -16,-66zm22 41c3,14 -13,18 -17,4 -3,-14 14,-18 17,-4z"/><path class="fil0" d="M397 0c155,0 155,236 0,236 -155,0 -155,-236 0,-236zm0 6c-147,0 -147,224 0,224 147,0 147,-224 0,-224z"/><path class="fil0" d="M313 151l168 0c-17,63 -150,64 -168,0zm160 6l-152 0c20,47 132,47 152,0z"/><path class="fil1" d="M419 70c-16,0 -16,46 0,46 15,0 15,-46 0,-46zm-8 30c0,10 12,10 12,0 0,-9 -12,-9 -12,0z"/><path class="fil1" d="M376 70c15,0 15,47 0,47 -16,0 -16,-47 0,-47zm7 31c0,9 -11,9 -11,0 0,-10 11,-10 11,0z"/></g><text x="0" y="707" fill="#000000" font-size="5px" font-weight="bold" font-family="'Helvetica Neue', Helvetica, Arial-Unicode, Arial, Sans-serif">Created by sumhi_icon</text><text x="0" y="712" fill="#000000" font-size="5px" font-weight="bold" font-family="'Helvetica Neue', Helvetica, Arial-Unicode, Arial, Sans-serif">from the Noun Project</text></svg>