<svg xmlns="http://www.w3.org/2000/svg" xmlns:xlink="http://www.w3.org/1999/xlink" version="1.1" x="0px" y="0px" viewBox="-461 271.7 36.1 22.875" style="enable-background:new -461 271.7 36.1 18.3;" xml:space="preserve"><ellipse cx="-454.4" cy="280.2" rx="0.7" ry="1"/><ellipse cx="-447.7" cy="280.2" rx="0.7" ry="1"/><ellipse cx="-438.7" cy="280.2" rx="0.7" ry="1"/><ellipse cx="-432" cy="280.2" rx="0.7" ry="1"/><g><path d="M-433.7,288.1c-4.4,0-8-3.6-8-8s3.6-8,8-8c4.4,0,8,3.6,8,8S-429.3,288.1-433.7,288.1z M-433.7,272.9c-4,0-7.2,3.2-7.2,7.2   s3.2,7.2,7.2,7.2c4,0,7.2-3.2,7.2-7.2S-429.7,272.9-433.7,272.9z"/></g><circle cx="-436.2" cy="283.5" r="1.7"/><path d="M-447.3,285.5c-1.3,1.2-3,2-4.9,2c-4,0-7.2-3.2-7.2-7.2s3.2-7.2,7.2-7.2s7.2,3.2,7.2,7.2c0,1.5-0.5,2.9-1.3,4.1  c0,0,0.1,0,0.1,0c0.1,0,0.4,0,0.5,0c0.2-0.2,0.4-0.4,0.6-0.5c0.6-1.1,0.9-2.3,0.9-3.6c0-4.4-3.6-8-8-8s-8,3.6-8,8s3.6,8,8,8  c2.1,0,3.9-0.8,5.4-2.1C-447.1,285.8-447.2,285.7-447.3,285.5z"/><g><path d="M-443.2,289.3c-1.1,0-2.1-0.5-2.6-1.5c-0.2-0.4-0.3-0.9-0.3-1.3c0-0.1-0.3-0.5-0.5-0.7c-0.4-0.5-0.6-0.7-0.5-0.9   c0.1-0.2,0.5-0.2,0.9-0.2c0.2,0,0.6,0,0.7-0.1c0.2-0.4,0.6-0.6,1-0.8c1.5-0.7,3.3-0.2,4,1.2c0.4,0.7,0.4,1.5,0.2,2.2   c-0.2,0.8-0.8,1.4-1.5,1.7h0C-442.2,289.2-442.7,289.3-443.2,289.3z M-446.8,285.1c0.1,0.1,0.3,0.4,0.4,0.5   c0.4,0.4,0.6,0.7,0.6,0.9c0,0.4,0.1,0.7,0.3,1.1c0.7,1.2,2.3,1.7,3.6,1l0,0c0.6-0.3,1.1-0.9,1.3-1.5c0.2-0.6,0.1-1.4-0.2-1.9   c-0.7-1.2-2.3-1.7-3.6-1c-0.4,0.2-0.7,0.4-0.8,0.6c-0.2,0.2-0.5,0.2-1,0.2C-446.4,285-446.7,285-446.8,285.1z"/></g><g><path d="M-442,285.8h-2.2c-0.1,0-0.2-0.1-0.2-0.2s0.1-0.2,0.2-0.2h2.2c0.1,0,0.2,0.1,0.2,0.2S-442,285.8-442,285.8z"/></g><g><path d="M-442,286.6h-2.2c-0.1,0-0.2-0.1-0.2-0.2s0.1-0.2,0.2-0.2h2.2c0.1,0,0.2,0.1,0.2,0.2S-442,286.6-442,286.6z"/></g><g><path d="M-442,287.3h-2.2c-0.1,0-0.2-0.1-0.2-0.2s0.1-0.2,0.2-0.2h2.2c0.1,0,0.2,0.1,0.2,0.2S-442,287.3-442,287.3z"/></g><path d="M-446.9,281.8c0,2.2-1.8,4-4,4c-2.2,0-4-1.8-4-4H-446.9z"/><text x="-461" y="305" fill="#000000" font-size="5px" font-weight="bold" font-family="'Helvetica Neue', Helvetica, Arial-Unicode, Arial, Sans-serif">Created by Vasco Gaspar</text><text x="-461" y="310" fill="#000000" font-size="5px" font-weight="bold" font-family="'Helvetica Neue', Helvetica, Arial-Unicode, Arial, Sans-serif">from the Noun Project</text></svg>